solid OpenSCAD_Model
  facet normal -1.000000 -0.000000 -0.000000
    outer loop
      vertex -21.500000 -24.250000 -2.500000
      vertex -21.500000 -24.250000 17.500000
      vertex -21.500000 24.250000 -2.500000
    endloop
  endfacet
  facet normal -1.000000 0.000000 0.000000
    outer loop
      vertex -21.500000 24.250000 -2.500000
      vertex -21.500000 -24.250000 17.500000
      vertex -21.500000 24.250000 17.500000
    endloop
  endfacet
  facet normal 0.000000 -1.000000 0.000000
    outer loop
      vertex -21.500000 -24.250000 17.500000
      vertex -21.500000 -24.250000 -2.500000
      vertex -1.500000 -24.250000 -2.500000
    endloop
  endfacet
  facet normal 0.000000 -1.000000 0.000000
    outer loop
      vertex -13.927051 -24.250000 10.236644
      vertex -21.500000 -24.250000 17.500000
      vertex -1.500000 -24.250000 -2.500000
    endloop
  endfacet
  facet normal 0.000000 -1.000000 0.000000
    outer loop
      vertex -12.427051 -24.250000 9.146830
      vertex -13.927051 -24.250000 10.236644
      vertex -1.500000 -24.250000 -2.500000
    endloop
  endfacet
  facet normal 0.000000 -1.000000 0.000000
    outer loop
      vertex -14.500000 -24.250000 12.000000
      vertex -21.500000 -24.250000 17.500000
      vertex -13.927051 -24.250000 10.236644
    endloop
  endfacet
  facet normal 0.000000 -1.000000 0.000000
    outer loop
      vertex -13.927051 -24.250000 13.763356
      vertex -21.500000 -24.250000 17.500000
      vertex -14.500000 -24.250000 12.000000
    endloop
  endfacet
  facet normal -0.000000 -1.000000 0.000000
    outer loop
      vertex -9.072949 -24.250000 13.763356
      vertex -8.500000 -24.250000 12.000000
      vertex -1.500000 -24.250000 17.500000
    endloop
  endfacet
  facet normal 0.000000 -1.000000 0.000000
    outer loop
      vertex -12.427051 -24.250000 14.853170
      vertex -21.500000 -24.250000 17.500000
      vertex -13.927051 -24.250000 13.763356
    endloop
  endfacet
  facet normal 0.000000 -1.000000 0.000000
    outer loop
      vertex -1.500000 -24.250000 17.500000
      vertex -21.500000 -24.250000 17.500000
      vertex -12.427051 -24.250000 14.853170
    endloop
  endfacet
  facet normal 0.000000 -1.000000 0.000000
    outer loop
      vertex -1.500000 -24.250000 17.500000
      vertex -12.427051 -24.250000 14.853170
      vertex -10.572949 -24.250000 14.853170
    endloop
  endfacet
  facet normal 0.000000 -1.000000 0.000000
    outer loop
      vertex -1.500000 -24.250000 17.500000
      vertex -8.500000 -24.250000 12.000000
      vertex -1.500000 -24.250000 -2.500000
    endloop
  endfacet
  facet normal 0.000000 -1.000000 0.000000
    outer loop
      vertex -8.500000 -24.250000 12.000000
      vertex -9.072949 -24.250000 10.236644
      vertex -1.500000 -24.250000 -2.500000
    endloop
  endfacet
  facet normal 0.000000 -1.000000 0.000000
    outer loop
      vertex -9.072949 -24.250000 10.236644
      vertex -10.572949 -24.250000 9.146830
      vertex -1.500000 -24.250000 -2.500000
    endloop
  endfacet
  facet normal 0.000000 -1.000000 0.000000
    outer loop
      vertex -10.572949 -24.250000 9.146830
      vertex -12.427051 -24.250000 9.146830
      vertex -1.500000 -24.250000 -2.500000
    endloop
  endfacet
  facet normal -0.000000 -1.000000 0.000000
    outer loop
      vertex -10.572949 -24.250000 14.853170
      vertex -9.072949 -24.250000 13.763356
      vertex -1.500000 -24.250000 17.500000
    endloop
  endfacet
  facet normal 0.000000 0.000000 -1.000000
    outer loop
      vertex -12.374369 9.545942 -2.500000
      vertex -11.876091 5.287576 -2.500000
      vertex -12.715919 2.702852 -2.500000
    endloop
  endfacet
  facet normal 0.000000 0.000000 -1.000000
    outer loop
      vertex -1.500000 21.500000 -2.500000
      vertex -21.500000 24.250000 -2.500000
      vertex -1.500000 24.250000 -2.500000
    endloop
  endfacet
  facet normal -0.000000 0.000000 -1.000000
    outer loop
      vertex 18.738330 -15.909903 -2.500000
      vertex 21.500000 21.500000 -2.500000
      vertex 21.500000 -21.500000 -2.500000
    endloop
  endfacet
  facet normal 0.000000 0.000000 -1.000000
    outer loop
      vertex -10.517221 7.641208 -2.500000
      vertex -9.545942 12.374369 -2.500000
      vertex -8.698698 9.660883 -2.500000
    endloop
  endfacet
  facet normal 0.000000 -0.000000 -1.000000
    outer loop
      vertex -21.500000 -24.250000 -2.500000
      vertex -21.500000 24.250000 -2.500000
      vertex -18.738330 -15.909903 -2.500000
    endloop
  endfacet
  facet normal 0.000000 0.000000 -1.000000
    outer loop
      vertex -21.500000 -24.250000 -2.500000
      vertex -18.738330 -15.909903 -2.500000
      vertex -15.909903 -18.738330 -2.500000
    endloop
  endfacet
  facet normal -0.000000 0.000000 -1.000000
    outer loop
      vertex -21.500000 -24.250000 -2.500000
      vertex -15.909903 -18.738330 -2.500000
      vertex -1.500000 -24.250000 -2.500000
    endloop
  endfacet
  facet normal 0.000000 0.000000 -1.000000
    outer loop
      vertex -10.517221 -7.641208 -2.500000
      vertex -9.545942 -12.374369 -2.500000
      vertex -11.876091 -5.287576 -2.500000
    endloop
  endfacet
  facet normal -0.000000 0.000000 -1.000000
    outer loop
      vertex -15.909903 18.738330 -2.500000
      vertex -1.500000 21.500000 -2.500000
      vertex -9.545942 12.374369 -2.500000
    endloop
  endfacet
  facet normal 0.000000 -0.000000 -1.000000
    outer loop
      vertex -18.738330 -15.909903 -2.500000
      vertex -21.500000 24.250000 -2.500000
      vertex -12.374369 -9.545942 -2.500000
    endloop
  endfacet
  facet normal 0.000000 -0.000000 -1.000000
    outer loop
      vertex -13.000000 0.000000 -2.500000
      vertex -18.738330 15.909903 -2.500000
      vertex -12.715919 2.702852 -2.500000
    endloop
  endfacet
  facet normal 0.000000 0.000000 -1.000000
    outer loop
      vertex -1.500000 21.500000 -2.500000
      vertex -15.909903 18.738330 -2.500000
      vertex -21.500000 24.250000 -2.500000
    endloop
  endfacet
  facet normal 0.000000 0.000000 -1.000000
    outer loop
      vertex -12.715919 -2.702852 -2.500000
      vertex -21.500000 24.250000 -2.500000
      vertex -18.738330 15.909903 -2.500000
    endloop
  endfacet
  facet normal 0.000000 0.000000 -1.000000
    outer loop
      vertex -1.358870 -12.928785 -2.500000
      vertex -1.500000 -21.500000 -2.500000
      vertex -4.017221 -12.363735 -2.500000
    endloop
  endfacet
  facet normal 0.000000 -0.000000 -1.000000
    outer loop
      vertex -18.738330 15.909903 -2.500000
      vertex -21.500000 24.250000 -2.500000
      vertex -15.909903 18.738330 -2.500000
    endloop
  endfacet
  facet normal 0.000000 0.000000 -1.000000
    outer loop
      vertex 12.374369 9.545942 -2.500000
      vertex 10.517221 7.641208 -2.500000
      vertex 9.545942 12.374369 -2.500000
    endloop
  endfacet
  facet normal 0.000000 0.000000 -1.000000
    outer loop
      vertex -12.374369 -9.545942 -2.500000
      vertex -21.500000 24.250000 -2.500000
      vertex -12.715919 -2.702852 -2.500000
    endloop
  endfacet
  facet normal 0.000000 -0.000000 -1.000000
    outer loop
      vertex -12.374369 -9.545942 -2.500000
      vertex -12.715919 -2.702852 -2.500000
      vertex -11.876091 -5.287576 -2.500000
    endloop
  endfacet
  facet normal -0.000000 0.000000 -1.000000
    outer loop
      vertex -12.374369 -9.545942 -2.500000
      vertex -11.876091 -5.287576 -2.500000
      vertex -9.545942 -12.374369 -2.500000
    endloop
  endfacet
  facet normal 0.000000 0.000000 -1.000000
    outer loop
      vertex -6.500000 -11.258330 -2.500000
      vertex -1.500000 -24.250000 -2.500000
      vertex -8.698698 -9.660883 -2.500000
    endloop
  endfacet
  facet normal -0.000000 -0.000000 -1.000000
    outer loop
      vertex -9.545942 -12.374369 -2.500000
      vertex -10.517221 -7.641208 -2.500000
      vertex -1.500000 -24.250000 -2.500000
    endloop
  endfacet
  facet normal 0.000000 0.000000 -1.000000
    outer loop
      vertex -10.517221 -7.641208 -2.500000
      vertex -8.698698 -9.660883 -2.500000
      vertex -1.500000 -24.250000 -2.500000
    endloop
  endfacet
  facet normal 0.000000 0.000000 -1.000000
    outer loop
      vertex -12.374369 9.545942 -2.500000
      vertex -12.715919 2.702852 -2.500000
      vertex -18.738330 15.909903 -2.500000
    endloop
  endfacet
  facet normal 0.000000 0.000000 -1.000000
    outer loop
      vertex -1.500000 -24.250000 -2.500000
      vertex -6.500000 -11.258330 -2.500000
      vertex -1.500000 -21.500000 -2.500000
    endloop
  endfacet
  facet normal 0.000000 0.000000 -1.000000
    outer loop
      vertex 4.017221 -12.363735 -2.500000
      vertex -1.500000 -21.500000 -2.500000
      vertex 1.358870 -12.928785 -2.500000
    endloop
  endfacet
  facet normal 0.000000 0.000000 -1.000000
    outer loop
      vertex -1.358870 -12.928785 -2.500000
      vertex 1.358870 -12.928785 -2.500000
      vertex -1.500000 -21.500000 -2.500000
    endloop
  endfacet
  facet normal -0.000000 0.000000 -1.000000
    outer loop
      vertex 13.000000 0.000000 -2.500000
      vertex 21.500000 21.500000 -2.500000
      vertex 12.715919 -2.702852 -2.500000
    endloop
  endfacet
  facet normal 0.000000 0.000000 -1.000000
    outer loop
      vertex -9.545942 -12.374369 -2.500000
      vertex -1.500000 -24.250000 -2.500000
      vertex -15.909903 -18.738330 -2.500000
    endloop
  endfacet
  facet normal -0.000000 0.000000 -1.000000
    outer loop
      vertex 15.909903 18.738330 -2.500000
      vertex 21.500000 21.500000 -2.500000
      vertex 18.738330 15.909903 -2.500000
    endloop
  endfacet
  facet normal 0.000000 0.000000 -1.000000
    outer loop
      vertex 18.738330 -15.909903 -2.500000
      vertex 21.500000 -21.500000 -2.500000
      vertex 15.909903 -18.738330 -2.500000
    endloop
  endfacet
  facet normal -0.000000 0.000000 -1.000000
    outer loop
      vertex 11.876091 5.287576 -2.500000
      vertex 18.738330 15.909903 -2.500000
      vertex 12.715919 2.702852 -2.500000
    endloop
  endfacet
  facet normal 0.000000 0.000000 -1.000000
    outer loop
      vertex 15.909903 -18.738330 -2.500000
      vertex 6.500000 -11.258330 -2.500000
      vertex 9.545942 -12.374369 -2.500000
    endloop
  endfacet
  facet normal -0.000000 0.000000 -1.000000
    outer loop
      vertex 12.715919 2.702852 -2.500000
      vertex 21.500000 21.500000 -2.500000
      vertex 13.000000 0.000000 -2.500000
    endloop
  endfacet
  facet normal -0.000000 0.000000 -1.000000
    outer loop
      vertex 12.715919 -2.702852 -2.500000
      vertex 21.500000 21.500000 -2.500000
      vertex 11.876091 -5.287576 -2.500000
    endloop
  endfacet
  facet normal 0.000000 -0.000000 -1.000000
    outer loop
      vertex 9.545942 -12.374369 -2.500000
      vertex 8.698698 -9.660883 -2.500000
      vertex 10.517221 -7.641208 -2.500000
    endloop
  endfacet
  facet normal -0.000000 0.000000 -1.000000
    outer loop
      vertex 18.738330 15.909903 -2.500000
      vertex 21.500000 21.500000 -2.500000
      vertex 12.715919 2.702852 -2.500000
    endloop
  endfacet
  facet normal 0.000000 0.000000 -1.000000
    outer loop
      vertex -1.500000 21.500000 -2.500000
      vertex 10.517221 7.641208 -2.500000
      vertex 8.698698 9.660883 -2.500000
    endloop
  endfacet
  facet normal 0.000000 0.000000 -1.000000
    outer loop
      vertex -1.500000 21.500000 -2.500000
      vertex 8.698698 9.660883 -2.500000
      vertex 6.500000 11.258330 -2.500000
    endloop
  endfacet
  facet normal 0.000000 0.000000 -1.000000
    outer loop
      vertex -1.500000 21.500000 -2.500000
      vertex 6.500000 11.258330 -2.500000
      vertex 4.017221 12.363735 -2.500000
    endloop
  endfacet
  facet normal 0.000000 0.000000 -1.000000
    outer loop
      vertex -1.500000 21.500000 -2.500000
      vertex 4.017221 12.363735 -2.500000
      vertex 1.358870 12.928785 -2.500000
    endloop
  endfacet
  facet normal 0.000000 0.000000 -1.000000
    outer loop
      vertex -1.500000 21.500000 -2.500000
      vertex 1.358870 12.928785 -2.500000
      vertex -1.358870 12.928785 -2.500000
    endloop
  endfacet
  facet normal -0.000000 0.000000 -1.000000
    outer loop
      vertex 10.517221 7.641208 -2.500000
      vertex 12.374369 9.545942 -2.500000
      vertex 11.876091 5.287576 -2.500000
    endloop
  endfacet
  facet normal 0.000000 0.000000 -1.000000
    outer loop
      vertex -1.500000 21.500000 -2.500000
      vertex -4.017221 12.363735 -2.500000
      vertex -9.545942 12.374369 -2.500000
    endloop
  endfacet
  facet normal 0.000000 0.000000 -1.000000
    outer loop
      vertex -4.017221 12.363735 -2.500000
      vertex -6.500000 11.258330 -2.500000
      vertex -9.545942 12.374369 -2.500000
    endloop
  endfacet
  facet normal 0.000000 0.000000 -1.000000
    outer loop
      vertex -6.500000 11.258330 -2.500000
      vertex -8.698698 9.660883 -2.500000
      vertex -9.545942 12.374369 -2.500000
    endloop
  endfacet
  facet normal 0.000000 -0.000000 -1.000000
    outer loop
      vertex -11.876091 5.287576 -2.500000
      vertex -12.374369 9.545942 -2.500000
      vertex -10.517221 7.641208 -2.500000
    endloop
  endfacet
  facet normal 0.000000 0.000000 -1.000000
    outer loop
      vertex -9.545942 12.374369 -2.500000
      vertex -10.517221 7.641208 -2.500000
      vertex -12.374369 9.545942 -2.500000
    endloop
  endfacet
  facet normal -0.000000 -0.000000 -1.000000
    outer loop
      vertex 12.374369 -9.545942 -2.500000
      vertex 11.876091 -5.287576 -2.500000
      vertex 18.738330 -15.909903 -2.500000
    endloop
  endfacet
  facet normal 0.000000 0.000000 -1.000000
    outer loop
      vertex -12.715919 -2.702852 -2.500000
      vertex -18.738330 15.909903 -2.500000
      vertex -13.000000 0.000000 -2.500000
    endloop
  endfacet
  facet normal -0.000000 0.000000 -1.000000
    outer loop
      vertex 10.517221 -7.641208 -2.500000
      vertex 11.876091 -5.287576 -2.500000
      vertex 12.374369 -9.545942 -2.500000
    endloop
  endfacet
  facet normal -0.000000 0.000000 -1.000000
    outer loop
      vertex 6.500000 -11.258330 -2.500000
      vertex 8.698698 -9.660883 -2.500000
      vertex 9.545942 -12.374369 -2.500000
    endloop
  endfacet
  facet normal -0.000000 0.000000 -1.000000
    outer loop
      vertex 11.876091 -5.287576 -2.500000
      vertex 21.500000 21.500000 -2.500000
      vertex 18.738330 -15.909903 -2.500000
    endloop
  endfacet
  facet normal 0.000000 0.000000 -1.000000
    outer loop
      vertex 9.545942 -12.374369 -2.500000
      vertex 10.517221 -7.641208 -2.500000
      vertex 12.374369 -9.545942 -2.500000
    endloop
  endfacet
  facet normal 0.000000 0.000000 -1.000000
    outer loop
      vertex -1.500000 21.500000 -2.500000
      vertex 9.545942 12.374369 -2.500000
      vertex 10.517221 7.641208 -2.500000
    endloop
  endfacet
  facet normal 0.000000 0.000000 -1.000000
    outer loop
      vertex 18.738330 15.909903 -2.500000
      vertex 11.876091 5.287576 -2.500000
      vertex 12.374369 9.545942 -2.500000
    endloop
  endfacet
  facet normal 0.000000 0.000000 -1.000000
    outer loop
      vertex -4.017221 12.363735 -2.500000
      vertex -1.500000 21.500000 -2.500000
      vertex -1.358870 12.928785 -2.500000
    endloop
  endfacet
  facet normal 0.000000 0.000000 -1.000000
    outer loop
      vertex -4.017221 -12.363735 -2.500000
      vertex -1.500000 -21.500000 -2.500000
      vertex -6.500000 -11.258330 -2.500000
    endloop
  endfacet
  facet normal 0.000000 0.000000 -1.000000
    outer loop
      vertex -1.500000 21.500000 -2.500000
      vertex 21.500000 21.500000 -2.500000
      vertex 15.909903 18.738330 -2.500000
    endloop
  endfacet
  facet normal 0.000000 0.000000 -1.000000
    outer loop
      vertex -1.500000 21.500000 -2.500000
      vertex 15.909903 18.738330 -2.500000
      vertex 9.545942 12.374369 -2.500000
    endloop
  endfacet
  facet normal 0.000000 0.000000 -1.000000
    outer loop
      vertex -1.500000 -21.500000 -2.500000
      vertex 4.017221 -12.363735 -2.500000
      vertex 6.500000 -11.258330 -2.500000
    endloop
  endfacet
  facet normal 0.000000 0.000000 -1.000000
    outer loop
      vertex -1.500000 -21.500000 -2.500000
      vertex 6.500000 -11.258330 -2.500000
      vertex 15.909903 -18.738330 -2.500000
    endloop
  endfacet
  facet normal -0.000000 0.000000 -1.000000
    outer loop
      vertex -1.500000 -21.500000 -2.500000
      vertex 15.909903 -18.738330 -2.500000
      vertex 21.500000 -21.500000 -2.500000
    endloop
  endfacet
  facet normal 0.000000 1.000000 0.000000
    outer loop
      vertex -21.500000 24.250000 -2.500000
      vertex -21.500000 24.250000 17.500000
      vertex -1.500000 24.250000 -2.500000
    endloop
  endfacet
  facet normal 0.000000 1.000000 0.000000
    outer loop
      vertex -10.572949 24.250000 14.853170
      vertex -21.500000 24.250000 17.500000
      vertex -1.500000 24.250000 17.500000
    endloop
  endfacet
  facet normal 0.000000 1.000000 0.000000
    outer loop
      vertex -13.927051 24.250000 10.236644
      vertex -21.500000 24.250000 17.500000
      vertex -14.500000 24.250000 12.000000
    endloop
  endfacet
  facet normal 0.000000 1.000000 0.000000
    outer loop
      vertex -1.500000 24.250000 -2.500000
      vertex -21.500000 24.250000 17.500000
      vertex -13.927051 24.250000 10.236644
    endloop
  endfacet
  facet normal 0.000000 1.000000 0.000000
    outer loop
      vertex -1.500000 24.250000 -2.500000
      vertex -13.927051 24.250000 10.236644
      vertex -12.427051 24.250000 9.146830
    endloop
  endfacet
  facet normal 0.000000 1.000000 -0.000000
    outer loop
      vertex -8.500000 24.250000 12.000000
      vertex -1.500000 24.250000 17.500000
      vertex -9.072949 24.250000 10.236644
    endloop
  endfacet
  facet normal 0.000000 1.000000 0.000000
    outer loop
      vertex -1.500000 24.250000 -2.500000
      vertex -10.572949 24.250000 9.146830
      vertex -9.072949 24.250000 10.236644
    endloop
  endfacet
  facet normal 0.000000 1.000000 0.000000
    outer loop
      vertex -1.500000 24.250000 -2.500000
      vertex -9.072949 24.250000 10.236644
      vertex -1.500000 24.250000 17.500000
    endloop
  endfacet
  facet normal 0.000000 1.000000 0.000000
    outer loop
      vertex -10.572949 24.250000 14.853170
      vertex -1.500000 24.250000 17.500000
      vertex -9.072949 24.250000 13.763356
    endloop
  endfacet
  facet normal 0.000000 1.000000 0.000000
    outer loop
      vertex -8.500000 24.250000 12.000000
      vertex -9.072949 24.250000 13.763356
      vertex -1.500000 24.250000 17.500000
    endloop
  endfacet
  facet normal 0.000000 1.000000 0.000000
    outer loop
      vertex -12.427051 24.250000 14.853170
      vertex -21.500000 24.250000 17.500000
      vertex -10.572949 24.250000 14.853170
    endloop
  endfacet
  facet normal 0.000000 1.000000 0.000000
    outer loop
      vertex -13.927051 24.250000 13.763356
      vertex -21.500000 24.250000 17.500000
      vertex -12.427051 24.250000 14.853170
    endloop
  endfacet
  facet normal 0.000000 1.000000 0.000000
    outer loop
      vertex -14.500000 24.250000 12.000000
      vertex -21.500000 24.250000 17.500000
      vertex -13.927051 24.250000 13.763356
    endloop
  endfacet
  facet normal 0.000000 1.000000 -0.000000
    outer loop
      vertex -10.572949 24.250000 9.146830
      vertex -1.500000 24.250000 -2.500000
      vertex -12.427051 24.250000 9.146830
    endloop
  endfacet
  facet normal 0.000000 -0.000000 1.000000
    outer loop
      vertex -19.000000 -21.500000 17.500000
      vertex -21.500000 -24.250000 17.500000
      vertex -1.500000 -24.250000 17.500000
    endloop
  endfacet
  facet normal 0.000000 0.000000 1.000000
    outer loop
      vertex -19.000000 -21.500000 17.500000
      vertex -19.000000 21.500000 17.500000
      vertex -21.500000 24.250000 17.500000
    endloop
  endfacet
  facet normal 0.000000 -0.000000 1.000000
    outer loop
      vertex -21.500000 24.250000 17.500000
      vertex -21.500000 -24.250000 17.500000
      vertex -19.000000 -21.500000 17.500000
    endloop
  endfacet
  facet normal -0.000000 0.000000 1.000000
    outer loop
      vertex -1.500000 21.500000 17.500000
      vertex -21.500000 24.250000 17.500000
      vertex -19.000000 21.500000 17.500000
    endloop
  endfacet
  facet normal 0.000000 0.000000 1.000000
    outer loop
      vertex -1.500000 24.250000 17.500000
      vertex -21.500000 24.250000 17.500000
      vertex -1.500000 21.500000 17.500000
    endloop
  endfacet
  facet normal 0.000000 0.000000 1.000000
    outer loop
      vertex -1.500000 -21.500000 17.500000
      vertex -19.000000 -21.500000 17.500000
      vertex -1.500000 -24.250000 17.500000
    endloop
  endfacet
  facet normal 1.000000 0.000000 -0.000000
    outer loop
      vertex -1.500000 -24.250000 17.500000
      vertex -1.500000 -24.250000 -2.500000
      vertex -1.500000 -21.500000 -2.500000
    endloop
  endfacet
  facet normal 1.000000 0.000000 0.000000
    outer loop
      vertex -1.500000 -21.500000 17.500000
      vertex -1.500000 -24.250000 17.500000
      vertex -1.500000 -21.500000 2.500000
    endloop
  endfacet
  facet normal 1.000000 -0.000000 0.000000
    outer loop
      vertex -1.500000 -21.500000 2.500000
      vertex -1.500000 -24.250000 17.500000
      vertex -1.500000 -21.500000 -2.500000
    endloop
  endfacet
  facet normal 0.951057 0.000000 0.309017
    outer loop
      vertex -13.927051 -24.250000 10.236644
      vertex -13.927051 -21.500000 10.236644
      vertex -14.500000 -21.500000 12.000000
    endloop
  endfacet
  facet normal 0.951057 0.000000 0.309017
    outer loop
      vertex -14.500000 -24.250000 12.000000
      vertex -13.927051 -24.250000 10.236644
      vertex -14.500000 -21.500000 12.000000
    endloop
  endfacet
  facet normal 0.587785 0.000000 0.809017
    outer loop
      vertex -12.427051 -24.250000 9.146830
      vertex -12.427051 -21.500000 9.146830
      vertex -13.927051 -21.500000 10.236644
    endloop
  endfacet
  facet normal 0.587785 0.000000 0.809017
    outer loop
      vertex -13.927051 -24.250000 10.236644
      vertex -12.427051 -24.250000 9.146830
      vertex -13.927051 -21.500000 10.236644
    endloop
  endfacet
  facet normal 0.000000 0.000000 1.000000
    outer loop
      vertex -10.572949 -24.250000 9.146830
      vertex -10.572949 -21.500000 9.146830
      vertex -12.427051 -21.500000 9.146830
    endloop
  endfacet
  facet normal 0.000000 0.000000 1.000000
    outer loop
      vertex -12.427051 -24.250000 9.146830
      vertex -10.572949 -24.250000 9.146830
      vertex -12.427051 -21.500000 9.146830
    endloop
  endfacet
  facet normal -0.587785 0.000000 0.809017
    outer loop
      vertex -9.072949 -24.250000 10.236644
      vertex -9.072949 -21.500000 10.236644
      vertex -10.572949 -21.500000 9.146830
    endloop
  endfacet
  facet normal -0.587785 0.000000 0.809017
    outer loop
      vertex -10.572949 -24.250000 9.146830
      vertex -9.072949 -24.250000 10.236644
      vertex -10.572949 -21.500000 9.146830
    endloop
  endfacet
  facet normal -0.951057 0.000000 0.309017
    outer loop
      vertex -8.500000 -21.500000 12.000000
      vertex -9.072949 -21.500000 10.236644
      vertex -8.500000 -24.250000 12.000000
    endloop
  endfacet
  facet normal -0.951057 0.000000 0.309017
    outer loop
      vertex -8.500000 -24.250000 12.000000
      vertex -9.072949 -21.500000 10.236644
      vertex -9.072949 -24.250000 10.236644
    endloop
  endfacet
  facet normal -0.951057 0.000000 -0.309017
    outer loop
      vertex -8.500000 -21.500000 12.000000
      vertex -8.500000 -24.250000 12.000000
      vertex -9.072949 -21.500000 13.763356
    endloop
  endfacet
  facet normal -0.951057 0.000000 -0.309017
    outer loop
      vertex -9.072949 -21.500000 13.763356
      vertex -8.500000 -24.250000 12.000000
      vertex -9.072949 -24.250000 13.763356
    endloop
  endfacet
  facet normal -0.587785 0.000000 -0.809017
    outer loop
      vertex -9.072949 -21.500000 13.763356
      vertex -9.072949 -24.250000 13.763356
      vertex -10.572949 -21.500000 14.853170
    endloop
  endfacet
  facet normal -0.587785 0.000000 -0.809017
    outer loop
      vertex -10.572949 -21.500000 14.853170
      vertex -9.072949 -24.250000 13.763356
      vertex -10.572949 -24.250000 14.853170
    endloop
  endfacet
  facet normal 0.000000 0.000000 -1.000000
    outer loop
      vertex -10.572949 -21.500000 14.853170
      vertex -10.572949 -24.250000 14.853170
      vertex -12.427051 -21.500000 14.853170
    endloop
  endfacet
  facet normal 0.000000 0.000000 -1.000000
    outer loop
      vertex -12.427051 -21.500000 14.853170
      vertex -10.572949 -24.250000 14.853170
      vertex -12.427051 -24.250000 14.853170
    endloop
  endfacet
  facet normal 0.587785 0.000000 -0.809017
    outer loop
      vertex -12.427051 -21.500000 14.853170
      vertex -12.427051 -24.250000 14.853170
      vertex -13.927051 -21.500000 13.763356
    endloop
  endfacet
  facet normal 0.587785 0.000000 -0.809017
    outer loop
      vertex -13.927051 -21.500000 13.763356
      vertex -12.427051 -24.250000 14.853170
      vertex -13.927051 -24.250000 13.763356
    endloop
  endfacet
  facet normal 0.951057 0.000000 -0.309017
    outer loop
      vertex -14.500000 -21.500000 12.000000
      vertex -13.927051 -21.500000 13.763356
      vertex -13.927051 -24.250000 13.763356
    endloop
  endfacet
  facet normal 0.951057 0.000000 -0.309017
    outer loop
      vertex -14.500000 -24.250000 12.000000
      vertex -14.500000 -21.500000 12.000000
      vertex -13.927051 -24.250000 13.763356
    endloop
  endfacet
  facet normal 0.000000 -1.000000 0.000000
    outer loop
      vertex -1.500000 -21.500000 2.500000
      vertex -1.500000 -21.500000 -2.500000
      vertex 21.500000 -21.500000 -2.500000
    endloop
  endfacet
  facet normal 0.000000 -1.000000 0.000000
    outer loop
      vertex 21.500000 -21.500000 2.500000
      vertex -1.500000 -21.500000 2.500000
      vertex 21.500000 -21.500000 -2.500000
    endloop
  endfacet
  facet normal 1.000000 0.000000 -0.000000
    outer loop
      vertex 21.500000 -21.500000 2.500000
      vertex 21.500000 -21.500000 -2.500000
      vertex 21.500000 21.500000 -2.500000
    endloop
  endfacet
  facet normal 1.000000 0.000000 0.000000
    outer loop
      vertex 21.500000 21.500000 2.500000
      vertex 21.500000 -21.500000 2.500000
      vertex 21.500000 21.500000 -2.500000
    endloop
  endfacet
  facet normal 0.000000 1.000000 0.000000
    outer loop
      vertex -1.500000 21.500000 -2.500000
      vertex -1.500000 21.500000 2.500000
      vertex 21.500000 21.500000 -2.500000
    endloop
  endfacet
  facet normal 0.000000 1.000000 0.000000
    outer loop
      vertex 21.500000 21.500000 -2.500000
      vertex -1.500000 21.500000 2.500000
      vertex 21.500000 21.500000 2.500000
    endloop
  endfacet
  facet normal 1.000000 0.000000 -0.000000
    outer loop
      vertex -1.500000 21.500000 2.500000
      vertex -1.500000 21.500000 -2.500000
      vertex -1.500000 24.250000 -2.500000
    endloop
  endfacet
  facet normal 1.000000 0.000000 -0.000000
    outer loop
      vertex -1.500000 21.500000 17.500000
      vertex -1.500000 21.500000 2.500000
      vertex -1.500000 24.250000 17.500000
    endloop
  endfacet
  facet normal 1.000000 0.000000 0.000000
    outer loop
      vertex -1.500000 24.250000 17.500000
      vertex -1.500000 21.500000 2.500000
      vertex -1.500000 24.250000 -2.500000
    endloop
  endfacet
  facet normal 0.707107 0.707107 -0.000000
    outer loop
      vertex -15.909903 -18.738330 2.500000
      vertex -15.909903 -18.738330 -2.500000
      vertex -18.738330 -15.909903 2.500000
    endloop
  endfacet
  facet normal 0.707107 0.707107 -0.000000
    outer loop
      vertex -18.738330 -15.909903 2.500000
      vertex -15.909903 -18.738330 -2.500000
      vertex -18.738330 -15.909903 -2.500000
    endloop
  endfacet
  facet normal 0.707107 -0.707107 0.000000
    outer loop
      vertex -12.374369 -9.545942 -2.500000
      vertex -12.374369 -9.545942 2.500000
      vertex -18.738330 -15.909903 2.500000
    endloop
  endfacet
  facet normal 0.707107 -0.707107 0.000000
    outer loop
      vertex -18.738330 -15.909903 -2.500000
      vertex -12.374369 -9.545942 -2.500000
      vertex -18.738330 -15.909903 2.500000
    endloop
  endfacet
  facet normal -0.707107 -0.707107 -0.000000
    outer loop
      vertex -9.545942 -12.374369 -2.500000
      vertex -9.545942 -12.374369 2.500000
      vertex -12.374369 -9.545942 2.500000
    endloop
  endfacet
  facet normal -0.707107 -0.707107 -0.000000
    outer loop
      vertex -12.374369 -9.545942 -2.500000
      vertex -9.545942 -12.374369 -2.500000
      vertex -12.374369 -9.545942 2.500000
    endloop
  endfacet
  facet normal -0.707107 0.707107 0.000000
    outer loop
      vertex -9.545942 -12.374369 2.500000
      vertex -9.545942 -12.374369 -2.500000
      vertex -15.909903 -18.738330 2.500000
    endloop
  endfacet
  facet normal -0.707107 0.707107 0.000000
    outer loop
      vertex -15.909903 -18.738330 2.500000
      vertex -9.545942 -12.374369 -2.500000
      vertex -15.909903 -18.738330 -2.500000
    endloop
  endfacet
  facet normal 0.707107 -0.707107 0.000000
    outer loop
      vertex -15.909903 18.738330 -2.500000
      vertex -15.909903 18.738330 2.500000
      vertex -18.738330 15.909903 2.500000
    endloop
  endfacet
  facet normal 0.707107 -0.707107 0.000000
    outer loop
      vertex -18.738330 15.909903 -2.500000
      vertex -15.909903 18.738330 -2.500000
      vertex -18.738330 15.909903 2.500000
    endloop
  endfacet
  facet normal -0.707107 -0.707107 0.000000
    outer loop
      vertex -9.545942 12.374369 2.500000
      vertex -15.909903 18.738330 2.500000
      vertex -9.545942 12.374369 -2.500000
    endloop
  endfacet
  facet normal -0.707107 -0.707107 0.000000
    outer loop
      vertex -9.545942 12.374369 -2.500000
      vertex -15.909903 18.738330 2.500000
      vertex -15.909903 18.738330 -2.500000
    endloop
  endfacet
  facet normal -0.707107 0.707107 0.000000
    outer loop
      vertex -9.545942 12.374369 2.500000
      vertex -9.545942 12.374369 -2.500000
      vertex -12.374369 9.545942 2.500000
    endloop
  endfacet
  facet normal -0.707107 0.707107 0.000000
    outer loop
      vertex -12.374369 9.545942 2.500000
      vertex -9.545942 12.374369 -2.500000
      vertex -12.374369 9.545942 -2.500000
    endloop
  endfacet
  facet normal 0.707107 0.707107 0.000000
    outer loop
      vertex -18.738330 15.909903 2.500000
      vertex -12.374369 9.545942 2.500000
      vertex -12.374369 9.545942 -2.500000
    endloop
  endfacet
  facet normal 0.707107 0.707107 0.000000
    outer loop
      vertex -18.738330 15.909903 -2.500000
      vertex -18.738330 15.909903 2.500000
      vertex -12.374369 9.545942 -2.500000
    endloop
  endfacet
  facet normal 0.994522 -0.104528 0.000000
    outer loop
      vertex -12.715919 2.702852 -2.500000
      vertex -12.715919 2.702852 2.500000
      vertex -13.000000 0.000000 2.500000
    endloop
  endfacet
  facet normal 0.994522 -0.104528 0.000000
    outer loop
      vertex -13.000000 0.000000 -2.500000
      vertex -12.715919 2.702852 -2.500000
      vertex -13.000000 0.000000 2.500000
    endloop
  endfacet
  facet normal 0.994522 0.104528 0.000000
    outer loop
      vertex -13.000000 0.000000 2.500000
      vertex -12.715919 -2.702852 2.500000
      vertex -12.715919 -2.702852 -2.500000
    endloop
  endfacet
  facet normal 0.994522 0.104528 0.000000
    outer loop
      vertex -13.000000 0.000000 -2.500000
      vertex -13.000000 0.000000 2.500000
      vertex -12.715919 -2.702852 -2.500000
    endloop
  endfacet
  facet normal 0.951056 -0.309017 0.000000
    outer loop
      vertex -11.876091 5.287576 -2.500000
      vertex -11.876091 5.287576 2.500000
      vertex -12.715919 2.702852 2.500000
    endloop
  endfacet
  facet normal 0.951056 -0.309017 0.000000
    outer loop
      vertex -12.715919 2.702852 -2.500000
      vertex -11.876091 5.287576 -2.500000
      vertex -12.715919 2.702852 2.500000
    endloop
  endfacet
  facet normal 0.866025 -0.500000 0.000000
    outer loop
      vertex -10.517221 7.641208 -2.500000
      vertex -10.517221 7.641208 2.500000
      vertex -11.876091 5.287576 2.500000
    endloop
  endfacet
  facet normal 0.866025 -0.500000 0.000000
    outer loop
      vertex -11.876091 5.287576 -2.500000
      vertex -10.517221 7.641208 -2.500000
      vertex -11.876091 5.287576 2.500000
    endloop
  endfacet
  facet normal 0.743145 -0.669130 0.000000
    outer loop
      vertex -8.698698 9.660883 -2.500000
      vertex -8.698698 9.660883 2.500000
      vertex -10.517221 7.641208 2.500000
    endloop
  endfacet
  facet normal 0.743145 -0.669130 0.000000
    outer loop
      vertex -10.517221 7.641208 -2.500000
      vertex -8.698698 9.660883 -2.500000
      vertex -10.517221 7.641208 2.500000
    endloop
  endfacet
  facet normal 0.587785 -0.809017 0.000000
    outer loop
      vertex -6.500000 11.258330 -2.500000
      vertex -6.500000 11.258330 2.500000
      vertex -8.698698 9.660883 2.500000
    endloop
  endfacet
  facet normal 0.587785 -0.809017 0.000000
    outer loop
      vertex -8.698698 9.660883 -2.500000
      vertex -6.500000 11.258330 -2.500000
      vertex -8.698698 9.660883 2.500000
    endloop
  endfacet
  facet normal 0.406737 -0.913545 0.000000
    outer loop
      vertex -4.017221 12.363735 -2.500000
      vertex -4.017221 12.363735 2.500000
      vertex -6.500000 11.258330 2.500000
    endloop
  endfacet
  facet normal 0.406737 -0.913545 0.000000
    outer loop
      vertex -6.500000 11.258330 -2.500000
      vertex -4.017221 12.363735 -2.500000
      vertex -6.500000 11.258330 2.500000
    endloop
  endfacet
  facet normal 0.207912 -0.978148 0.000000
    outer loop
      vertex -1.358870 12.928785 -2.500000
      vertex -1.358870 12.928785 2.500000
      vertex -4.017221 12.363735 2.500000
    endloop
  endfacet
  facet normal 0.207912 -0.978148 0.000000
    outer loop
      vertex -4.017221 12.363735 -2.500000
      vertex -1.358870 12.928785 -2.500000
      vertex -4.017221 12.363735 2.500000
    endloop
  endfacet
  facet normal 0.000000 -1.000000 0.000000
    outer loop
      vertex 1.358870 12.928785 -2.500000
      vertex 1.358870 12.928785 2.500000
      vertex -1.358870 12.928785 2.500000
    endloop
  endfacet
  facet normal -0.000000 -1.000000 -0.000000
    outer loop
      vertex -1.358870 12.928785 -2.500000
      vertex 1.358870 12.928785 -2.500000
      vertex -1.358870 12.928785 2.500000
    endloop
  endfacet
  facet normal -0.207912 -0.978148 -0.000000
    outer loop
      vertex 4.017221 12.363735 -2.500000
      vertex 4.017221 12.363735 2.500000
      vertex 1.358870 12.928785 2.500000
    endloop
  endfacet
  facet normal -0.207912 -0.978148 -0.000000
    outer loop
      vertex 1.358870 12.928785 -2.500000
      vertex 4.017221 12.363735 -2.500000
      vertex 1.358870 12.928785 2.500000
    endloop
  endfacet
  facet normal -0.406737 -0.913545 -0.000000
    outer loop
      vertex 6.500000 11.258330 -2.500000
      vertex 6.500000 11.258330 2.500000
      vertex 4.017221 12.363735 2.500000
    endloop
  endfacet
  facet normal -0.406737 -0.913545 -0.000000
    outer loop
      vertex 4.017221 12.363735 -2.500000
      vertex 6.500000 11.258330 -2.500000
      vertex 4.017221 12.363735 2.500000
    endloop
  endfacet
  facet normal -0.587785 -0.809017 -0.000000
    outer loop
      vertex 8.698698 9.660883 -2.500000
      vertex 8.698698 9.660883 2.500000
      vertex 6.500000 11.258330 2.500000
    endloop
  endfacet
  facet normal -0.587785 -0.809017 -0.000000
    outer loop
      vertex 6.500000 11.258330 -2.500000
      vertex 8.698698 9.660883 -2.500000
      vertex 6.500000 11.258330 2.500000
    endloop
  endfacet
  facet normal -0.743145 -0.669130 0.000000
    outer loop
      vertex 10.517221 7.641208 2.500000
      vertex 8.698698 9.660883 2.500000
      vertex 10.517221 7.641208 -2.500000
    endloop
  endfacet
  facet normal -0.743145 -0.669130 0.000000
    outer loop
      vertex 10.517221 7.641208 -2.500000
      vertex 8.698698 9.660883 2.500000
      vertex 8.698698 9.660883 -2.500000
    endloop
  endfacet
  facet normal -0.866025 -0.500000 0.000000
    outer loop
      vertex 11.876091 5.287576 2.500000
      vertex 10.517221 7.641208 2.500000
      vertex 11.876091 5.287576 -2.500000
    endloop
  endfacet
  facet normal -0.866025 -0.500000 0.000000
    outer loop
      vertex 11.876091 5.287576 -2.500000
      vertex 10.517221 7.641208 2.500000
      vertex 10.517221 7.641208 -2.500000
    endloop
  endfacet
  facet normal -0.951056 -0.309017 0.000000
    outer loop
      vertex 12.715919 2.702852 2.500000
      vertex 11.876091 5.287576 2.500000
      vertex 12.715919 2.702852 -2.500000
    endloop
  endfacet
  facet normal -0.951056 -0.309017 0.000000
    outer loop
      vertex 12.715919 2.702852 -2.500000
      vertex 11.876091 5.287576 2.500000
      vertex 11.876091 5.287576 -2.500000
    endloop
  endfacet
  facet normal -0.994522 -0.104528 0.000000
    outer loop
      vertex 13.000000 0.000000 2.500000
      vertex 12.715919 2.702852 2.500000
      vertex 13.000000 0.000000 -2.500000
    endloop
  endfacet
  facet normal -0.994522 -0.104528 0.000000
    outer loop
      vertex 13.000000 0.000000 -2.500000
      vertex 12.715919 2.702852 2.500000
      vertex 12.715919 2.702852 -2.500000
    endloop
  endfacet
  facet normal -0.994522 0.104528 0.000000
    outer loop
      vertex 13.000000 0.000000 2.500000
      vertex 13.000000 0.000000 -2.500000
      vertex 12.715919 -2.702852 2.500000
    endloop
  endfacet
  facet normal -0.994522 0.104528 0.000000
    outer loop
      vertex 12.715919 -2.702852 2.500000
      vertex 13.000000 0.000000 -2.500000
      vertex 12.715919 -2.702852 -2.500000
    endloop
  endfacet
  facet normal -0.951056 0.309017 0.000000
    outer loop
      vertex 12.715919 -2.702852 2.500000
      vertex 12.715919 -2.702852 -2.500000
      vertex 11.876091 -5.287576 2.500000
    endloop
  endfacet
  facet normal -0.951056 0.309017 0.000000
    outer loop
      vertex 11.876091 -5.287576 2.500000
      vertex 12.715919 -2.702852 -2.500000
      vertex 11.876091 -5.287576 -2.500000
    endloop
  endfacet
  facet normal -0.866025 0.500000 0.000000
    outer loop
      vertex 11.876091 -5.287576 2.500000
      vertex 11.876091 -5.287576 -2.500000
      vertex 10.517221 -7.641208 2.500000
    endloop
  endfacet
  facet normal -0.866025 0.500000 0.000000
    outer loop
      vertex 10.517221 -7.641208 2.500000
      vertex 11.876091 -5.287576 -2.500000
      vertex 10.517221 -7.641208 -2.500000
    endloop
  endfacet
  facet normal -0.743145 0.669130 0.000000
    outer loop
      vertex 10.517221 -7.641208 2.500000
      vertex 10.517221 -7.641208 -2.500000
      vertex 8.698698 -9.660883 2.500000
    endloop
  endfacet
  facet normal -0.743145 0.669130 0.000000
    outer loop
      vertex 8.698698 -9.660883 2.500000
      vertex 10.517221 -7.641208 -2.500000
      vertex 8.698698 -9.660883 -2.500000
    endloop
  endfacet
  facet normal -0.587785 0.809017 0.000000
    outer loop
      vertex 8.698698 -9.660883 2.500000
      vertex 8.698698 -9.660883 -2.500000
      vertex 6.500000 -11.258330 2.500000
    endloop
  endfacet
  facet normal -0.587785 0.809017 0.000000
    outer loop
      vertex 6.500000 -11.258330 2.500000
      vertex 8.698698 -9.660883 -2.500000
      vertex 6.500000 -11.258330 -2.500000
    endloop
  endfacet
  facet normal -0.406737 0.913545 0.000000
    outer loop
      vertex 6.500000 -11.258330 2.500000
      vertex 6.500000 -11.258330 -2.500000
      vertex 4.017221 -12.363735 2.500000
    endloop
  endfacet
  facet normal -0.406737 0.913545 0.000000
    outer loop
      vertex 4.017221 -12.363735 2.500000
      vertex 6.500000 -11.258330 -2.500000
      vertex 4.017221 -12.363735 -2.500000
    endloop
  endfacet
  facet normal -0.207912 0.978148 0.000000
    outer loop
      vertex 4.017221 -12.363735 2.500000
      vertex 4.017221 -12.363735 -2.500000
      vertex 1.358870 -12.928785 2.500000
    endloop
  endfacet
  facet normal -0.207912 0.978148 0.000000
    outer loop
      vertex 1.358870 -12.928785 2.500000
      vertex 4.017221 -12.363735 -2.500000
      vertex 1.358870 -12.928785 -2.500000
    endloop
  endfacet
  facet normal 0.000000 1.000000 0.000000
    outer loop
      vertex 1.358870 -12.928785 2.500000
      vertex 1.358870 -12.928785 -2.500000
      vertex -1.358870 -12.928785 2.500000
    endloop
  endfacet
  facet normal 0.000000 1.000000 -0.000000
    outer loop
      vertex -1.358870 -12.928785 2.500000
      vertex 1.358870 -12.928785 -2.500000
      vertex -1.358870 -12.928785 -2.500000
    endloop
  endfacet
  facet normal 0.207912 0.978148 -0.000000
    outer loop
      vertex -1.358870 -12.928785 2.500000
      vertex -1.358870 -12.928785 -2.500000
      vertex -4.017221 -12.363735 2.500000
    endloop
  endfacet
  facet normal 0.207912 0.978148 -0.000000
    outer loop
      vertex -4.017221 -12.363735 2.500000
      vertex -1.358870 -12.928785 -2.500000
      vertex -4.017221 -12.363735 -2.500000
    endloop
  endfacet
  facet normal 0.406737 0.913545 -0.000000
    outer loop
      vertex -4.017221 -12.363735 2.500000
      vertex -4.017221 -12.363735 -2.500000
      vertex -6.500000 -11.258330 2.500000
    endloop
  endfacet
  facet normal 0.406737 0.913545 -0.000000
    outer loop
      vertex -6.500000 -11.258330 2.500000
      vertex -4.017221 -12.363735 -2.500000
      vertex -6.500000 -11.258330 -2.500000
    endloop
  endfacet
  facet normal 0.587785 0.809017 -0.000000
    outer loop
      vertex -6.500000 -11.258330 2.500000
      vertex -6.500000 -11.258330 -2.500000
      vertex -8.698698 -9.660883 2.500000
    endloop
  endfacet
  facet normal 0.587785 0.809017 -0.000000
    outer loop
      vertex -8.698698 -9.660883 2.500000
      vertex -6.500000 -11.258330 -2.500000
      vertex -8.698698 -9.660883 -2.500000
    endloop
  endfacet
  facet normal 0.743145 0.669130 0.000000
    outer loop
      vertex -10.517221 -7.641208 2.500000
      vertex -8.698698 -9.660883 2.500000
      vertex -8.698698 -9.660883 -2.500000
    endloop
  endfacet
  facet normal 0.743145 0.669130 0.000000
    outer loop
      vertex -10.517221 -7.641208 -2.500000
      vertex -10.517221 -7.641208 2.500000
      vertex -8.698698 -9.660883 -2.500000
    endloop
  endfacet
  facet normal 0.866025 0.500000 0.000000
    outer loop
      vertex -11.876091 -5.287576 2.500000
      vertex -10.517221 -7.641208 2.500000
      vertex -10.517221 -7.641208 -2.500000
    endloop
  endfacet
  facet normal 0.866025 0.500000 0.000000
    outer loop
      vertex -11.876091 -5.287576 -2.500000
      vertex -11.876091 -5.287576 2.500000
      vertex -10.517221 -7.641208 -2.500000
    endloop
  endfacet
  facet normal 0.951056 0.309017 0.000000
    outer loop
      vertex -12.715919 -2.702852 2.500000
      vertex -11.876091 -5.287576 2.500000
      vertex -11.876091 -5.287576 -2.500000
    endloop
  endfacet
  facet normal 0.951056 0.309017 0.000000
    outer loop
      vertex -12.715919 -2.702852 -2.500000
      vertex -12.715919 -2.702852 2.500000
      vertex -11.876091 -5.287576 -2.500000
    endloop
  endfacet
  facet normal 0.707107 -0.707107 0.000000
    outer loop
      vertex 12.374369 -9.545942 -2.500000
      vertex 12.374369 -9.545942 2.500000
      vertex 9.545942 -12.374369 2.500000
    endloop
  endfacet
  facet normal 0.707107 -0.707107 0.000000
    outer loop
      vertex 9.545942 -12.374369 -2.500000
      vertex 12.374369 -9.545942 -2.500000
      vertex 9.545942 -12.374369 2.500000
    endloop
  endfacet
  facet normal -0.707107 -0.707107 -0.000000
    outer loop
      vertex 18.738330 -15.909903 -2.500000
      vertex 18.738330 -15.909903 2.500000
      vertex 12.374369 -9.545942 2.500000
    endloop
  endfacet
  facet normal -0.707107 -0.707107 -0.000000
    outer loop
      vertex 12.374369 -9.545942 -2.500000
      vertex 18.738330 -15.909903 -2.500000
      vertex 12.374369 -9.545942 2.500000
    endloop
  endfacet
  facet normal -0.707107 0.707107 0.000000
    outer loop
      vertex 18.738330 -15.909903 2.500000
      vertex 18.738330 -15.909903 -2.500000
      vertex 15.909903 -18.738330 2.500000
    endloop
  endfacet
  facet normal -0.707107 0.707107 0.000000
    outer loop
      vertex 15.909903 -18.738330 2.500000
      vertex 18.738330 -15.909903 -2.500000
      vertex 15.909903 -18.738330 -2.500000
    endloop
  endfacet
  facet normal 0.707107 0.707107 -0.000000
    outer loop
      vertex 15.909903 -18.738330 2.500000
      vertex 15.909903 -18.738330 -2.500000
      vertex 9.545942 -12.374369 2.500000
    endloop
  endfacet
  facet normal 0.707107 0.707107 -0.000000
    outer loop
      vertex 9.545942 -12.374369 2.500000
      vertex 15.909903 -18.738330 -2.500000
      vertex 9.545942 -12.374369 -2.500000
    endloop
  endfacet
  facet normal 0.707107 0.707107 0.000000
    outer loop
      vertex 9.545942 12.374369 2.500000
      vertex 12.374369 9.545942 2.500000
      vertex 12.374369 9.545942 -2.500000
    endloop
  endfacet
  facet normal 0.707107 0.707107 0.000000
    outer loop
      vertex 9.545942 12.374369 -2.500000
      vertex 9.545942 12.374369 2.500000
      vertex 12.374369 9.545942 -2.500000
    endloop
  endfacet
  facet normal 0.707107 -0.707107 0.000000
    outer loop
      vertex 15.909903 18.738330 -2.500000
      vertex 15.909903 18.738330 2.500000
      vertex 9.545942 12.374369 2.500000
    endloop
  endfacet
  facet normal 0.707107 -0.707107 0.000000
    outer loop
      vertex 9.545942 12.374369 -2.500000
      vertex 15.909903 18.738330 -2.500000
      vertex 9.545942 12.374369 2.500000
    endloop
  endfacet
  facet normal -0.707107 -0.707107 0.000000
    outer loop
      vertex 18.738330 15.909903 2.500000
      vertex 15.909903 18.738330 2.500000
      vertex 18.738330 15.909903 -2.500000
    endloop
  endfacet
  facet normal -0.707107 -0.707107 0.000000
    outer loop
      vertex 18.738330 15.909903 -2.500000
      vertex 15.909903 18.738330 2.500000
      vertex 15.909903 18.738330 -2.500000
    endloop
  endfacet
  facet normal -0.707107 0.707107 0.000000
    outer loop
      vertex 18.738330 15.909903 2.500000
      vertex 18.738330 15.909903 -2.500000
      vertex 12.374369 9.545942 2.500000
    endloop
  endfacet
  facet normal -0.707107 0.707107 0.000000
    outer loop
      vertex 12.374369 9.545942 2.500000
      vertex 18.738330 15.909903 -2.500000
      vertex 12.374369 9.545942 -2.500000
    endloop
  endfacet
  facet normal 0.951057 0.000000 -0.309017
    outer loop
      vertex -14.500000 24.250000 12.000000
      vertex -13.927051 24.250000 13.763356
      vertex -13.927051 21.500000 13.763356
    endloop
  endfacet
  facet normal 0.951057 0.000000 -0.309017
    outer loop
      vertex -14.500000 21.500000 12.000000
      vertex -14.500000 24.250000 12.000000
      vertex -13.927051 21.500000 13.763356
    endloop
  endfacet
  facet normal 0.951057 0.000000 0.309017
    outer loop
      vertex -13.927051 21.500000 10.236644
      vertex -13.927051 24.250000 10.236644
      vertex -14.500000 24.250000 12.000000
    endloop
  endfacet
  facet normal 0.951057 0.000000 0.309017
    outer loop
      vertex -14.500000 21.500000 12.000000
      vertex -13.927051 21.500000 10.236644
      vertex -14.500000 24.250000 12.000000
    endloop
  endfacet
  facet normal 0.587785 -0.000000 -0.809017
    outer loop
      vertex -12.427051 24.250000 14.853170
      vertex -12.427051 21.500000 14.853170
      vertex -13.927051 24.250000 13.763356
    endloop
  endfacet
  facet normal 0.587785 0.000000 -0.809017
    outer loop
      vertex -13.927051 24.250000 13.763356
      vertex -12.427051 21.500000 14.853170
      vertex -13.927051 21.500000 13.763356
    endloop
  endfacet
  facet normal 0.000000 -0.000000 -1.000000
    outer loop
      vertex -10.572949 24.250000 14.853170
      vertex -10.572949 21.500000 14.853170
      vertex -12.427051 24.250000 14.853170
    endloop
  endfacet
  facet normal 0.000000 -0.000000 -1.000000
    outer loop
      vertex -12.427051 24.250000 14.853170
      vertex -10.572949 21.500000 14.853170
      vertex -12.427051 21.500000 14.853170
    endloop
  endfacet
  facet normal -0.587785 0.000000 -0.809017
    outer loop
      vertex -9.072949 24.250000 13.763356
      vertex -9.072949 21.500000 13.763356
      vertex -10.572949 24.250000 14.853170
    endloop
  endfacet
  facet normal -0.587785 -0.000000 -0.809017
    outer loop
      vertex -10.572949 24.250000 14.853170
      vertex -9.072949 21.500000 13.763356
      vertex -10.572949 21.500000 14.853170
    endloop
  endfacet
  facet normal -0.951057 0.000000 -0.309017
    outer loop
      vertex -8.500000 24.250000 12.000000
      vertex -8.500000 21.500000 12.000000
      vertex -9.072949 24.250000 13.763356
    endloop
  endfacet
  facet normal -0.951057 0.000000 -0.309017
    outer loop
      vertex -9.072949 24.250000 13.763356
      vertex -8.500000 21.500000 12.000000
      vertex -9.072949 21.500000 13.763356
    endloop
  endfacet
  facet normal -0.951057 0.000000 0.309017
    outer loop
      vertex -8.500000 24.250000 12.000000
      vertex -9.072949 24.250000 10.236644
      vertex -8.500000 21.500000 12.000000
    endloop
  endfacet
  facet normal -0.951057 0.000000 0.309017
    outer loop
      vertex -8.500000 21.500000 12.000000
      vertex -9.072949 24.250000 10.236644
      vertex -9.072949 21.500000 10.236644
    endloop
  endfacet
  facet normal -0.587785 0.000000 0.809017
    outer loop
      vertex -9.072949 21.500000 10.236644
      vertex -9.072949 24.250000 10.236644
      vertex -10.572949 24.250000 9.146830
    endloop
  endfacet
  facet normal -0.587785 0.000000 0.809017
    outer loop
      vertex -10.572949 21.500000 9.146830
      vertex -9.072949 21.500000 10.236644
      vertex -10.572949 24.250000 9.146830
    endloop
  endfacet
  facet normal 0.000000 0.000000 1.000000
    outer loop
      vertex -10.572949 21.500000 9.146830
      vertex -10.572949 24.250000 9.146830
      vertex -12.427051 24.250000 9.146830
    endloop
  endfacet
  facet normal 0.000000 0.000000 1.000000
    outer loop
      vertex -12.427051 21.500000 9.146830
      vertex -10.572949 21.500000 9.146830
      vertex -12.427051 24.250000 9.146830
    endloop
  endfacet
  facet normal 0.587785 0.000000 0.809017
    outer loop
      vertex -12.427051 21.500000 9.146830
      vertex -12.427051 24.250000 9.146830
      vertex -13.927051 24.250000 10.236644
    endloop
  endfacet
  facet normal 0.587785 0.000000 0.809017
    outer loop
      vertex -13.927051 21.500000 10.236644
      vertex -12.427051 21.500000 9.146830
      vertex -13.927051 24.250000 10.236644
    endloop
  endfacet
  facet normal 0.000000 -1.000000 -0.000000
    outer loop
      vertex -12.427051 21.500000 14.853170
      vertex -1.500000 21.500000 17.500000
      vertex -19.000000 21.500000 17.500000
    endloop
  endfacet
  facet normal -0.000000 -1.000000 0.000000
    outer loop
      vertex -10.572949 21.500000 14.853170
      vertex -9.072949 21.500000 13.763356
      vertex -1.500000 21.500000 17.500000
    endloop
  endfacet
  facet normal 0.000000 -1.000000 -0.000000
    outer loop
      vertex -19.000000 21.500000 2.500000
      vertex -14.500000 21.500000 12.000000
      vertex -19.000000 21.500000 17.500000
    endloop
  endfacet
  facet normal 0.000000 -1.000000 -0.000000
    outer loop
      vertex -13.927051 21.500000 13.763356
      vertex -12.427051 21.500000 14.853170
      vertex -19.000000 21.500000 17.500000
    endloop
  endfacet
  facet normal 0.000000 -1.000000 -0.000000
    outer loop
      vertex -10.572949 21.500000 14.853170
      vertex -1.500000 21.500000 17.500000
      vertex -12.427051 21.500000 14.853170
    endloop
  endfacet
  facet normal 0.000000 -1.000000 0.000000
    outer loop
      vertex -9.072949 21.500000 10.236644
      vertex -10.572949 21.500000 9.146830
      vertex -1.500000 21.500000 2.500000
    endloop
  endfacet
  facet normal 0.000000 -1.000000 0.000000
    outer loop
      vertex -1.500000 21.500000 2.500000
      vertex -1.500000 21.500000 17.500000
      vertex -9.072949 21.500000 13.763356
    endloop
  endfacet
  facet normal 0.000000 -1.000000 0.000000
    outer loop
      vertex -1.500000 21.500000 2.500000
      vertex -9.072949 21.500000 13.763356
      vertex -8.500000 21.500000 12.000000
    endloop
  endfacet
  facet normal 0.000000 -1.000000 0.000000
    outer loop
      vertex -10.572949 21.500000 9.146830
      vertex -12.427051 21.500000 9.146830
      vertex -1.500000 21.500000 2.500000
    endloop
  endfacet
  facet normal 0.000000 -1.000000 0.000000
    outer loop
      vertex -1.500000 21.500000 2.500000
      vertex -8.500000 21.500000 12.000000
      vertex -9.072949 21.500000 10.236644
    endloop
  endfacet
  facet normal -0.000000 -1.000000 0.000000
    outer loop
      vertex -19.000000 21.500000 2.500000
      vertex -1.500000 21.500000 2.500000
      vertex -12.427051 21.500000 9.146830
    endloop
  endfacet
  facet normal 0.000000 -1.000000 0.000000
    outer loop
      vertex -19.000000 21.500000 2.500000
      vertex -13.927051 21.500000 10.236644
      vertex -14.500000 21.500000 12.000000
    endloop
  endfacet
  facet normal 0.000000 -1.000000 0.000000
    outer loop
      vertex -19.000000 21.500000 2.500000
      vertex -12.427051 21.500000 9.146830
      vertex -13.927051 21.500000 10.236644
    endloop
  endfacet
  facet normal 0.000000 -1.000000 -0.000000
    outer loop
      vertex -14.500000 21.500000 12.000000
      vertex -13.927051 21.500000 13.763356
      vertex -19.000000 21.500000 17.500000
    endloop
  endfacet
  facet normal 1.000000 0.000000 0.000000
    outer loop
      vertex -19.000000 21.500000 2.500000
      vertex -19.000000 21.500000 17.500000
      vertex -19.000000 -21.500000 17.500000
    endloop
  endfacet
  facet normal 1.000000 0.000000 0.000000
    outer loop
      vertex -19.000000 -21.500000 2.500000
      vertex -19.000000 21.500000 2.500000
      vertex -19.000000 -21.500000 17.500000
    endloop
  endfacet
  facet normal 0.000000 1.000000 -0.000000
    outer loop
      vertex -12.427051 -21.500000 9.146830
      vertex -1.500000 -21.500000 2.500000
      vertex -19.000000 -21.500000 2.500000
    endloop
  endfacet
  facet normal 0.000000 1.000000 -0.000000
    outer loop
      vertex -9.072949 -21.500000 10.236644
      vertex -1.500000 -21.500000 2.500000
      vertex -10.572949 -21.500000 9.146830
    endloop
  endfacet
  facet normal 0.000000 1.000000 -0.000000
    outer loop
      vertex -19.000000 -21.500000 17.500000
      vertex -13.927051 -21.500000 10.236644
      vertex -19.000000 -21.500000 2.500000
    endloop
  endfacet
  facet normal 0.000000 1.000000 -0.000000
    outer loop
      vertex -13.927051 -21.500000 10.236644
      vertex -12.427051 -21.500000 9.146830
      vertex -19.000000 -21.500000 2.500000
    endloop
  endfacet
  facet normal 0.000000 1.000000 0.000000
    outer loop
      vertex -1.500000 -21.500000 17.500000
      vertex -1.500000 -21.500000 2.500000
      vertex -9.072949 -21.500000 10.236644
    endloop
  endfacet
  facet normal 0.000000 1.000000 0.000000
    outer loop
      vertex -1.500000 -21.500000 17.500000
      vertex -9.072949 -21.500000 10.236644
      vertex -8.500000 -21.500000 12.000000
    endloop
  endfacet
  facet normal 0.000000 1.000000 0.000000
    outer loop
      vertex -1.500000 -21.500000 17.500000
      vertex -8.500000 -21.500000 12.000000
      vertex -9.072949 -21.500000 13.763356
    endloop
  endfacet
  facet normal 0.000000 1.000000 0.000000
    outer loop
      vertex -1.500000 -21.500000 17.500000
      vertex -9.072949 -21.500000 13.763356
      vertex -10.572949 -21.500000 14.853170
    endloop
  endfacet
  facet normal 0.000000 1.000000 0.000000
    outer loop
      vertex -1.500000 -21.500000 17.500000
      vertex -10.572949 -21.500000 14.853170
      vertex -19.000000 -21.500000 17.500000
    endloop
  endfacet
  facet normal 0.000000 1.000000 0.000000
    outer loop
      vertex -13.927051 -21.500000 13.763356
      vertex -19.000000 -21.500000 17.500000
      vertex -12.427051 -21.500000 14.853170
    endloop
  endfacet
  facet normal 0.000000 1.000000 0.000000
    outer loop
      vertex -12.427051 -21.500000 14.853170
      vertex -19.000000 -21.500000 17.500000
      vertex -10.572949 -21.500000 14.853170
    endloop
  endfacet
  facet normal 0.000000 1.000000 0.000000
    outer loop
      vertex -14.500000 -21.500000 12.000000
      vertex -19.000000 -21.500000 17.500000
      vertex -13.927051 -21.500000 13.763356
    endloop
  endfacet
  facet normal 0.000000 1.000000 0.000000
    outer loop
      vertex -19.000000 -21.500000 17.500000
      vertex -14.500000 -21.500000 12.000000
      vertex -13.927051 -21.500000 10.236644
    endloop
  endfacet
  facet normal 0.000000 1.000000 -0.000000
    outer loop
      vertex -10.572949 -21.500000 9.146830
      vertex -1.500000 -21.500000 2.500000
      vertex -12.427051 -21.500000 9.146830
    endloop
  endfacet
  facet normal 0.000000 -0.000000 1.000000
    outer loop
      vertex -15.909903 -18.738330 2.500000
      vertex -19.000000 -21.500000 2.500000
      vertex -1.500000 -21.500000 2.500000
    endloop
  endfacet
  facet normal 0.000000 -0.000000 1.000000
    outer loop
      vertex -18.738330 -15.909903 2.500000
      vertex -19.000000 -21.500000 2.500000
      vertex -15.909903 -18.738330 2.500000
    endloop
  endfacet
  facet normal 0.000000 -0.000000 1.000000
    outer loop
      vertex -12.374369 9.545942 2.500000
      vertex -12.715919 2.702852 2.500000
      vertex -11.876091 5.287576 2.500000
    endloop
  endfacet
  facet normal 0.000000 -0.000000 1.000000
    outer loop
      vertex -19.000000 21.500000 2.500000
      vertex -19.000000 -21.500000 2.500000
      vertex -18.738330 -15.909903 2.500000
    endloop
  endfacet
  facet normal 0.000000 0.000000 1.000000
    outer loop
      vertex -11.876091 5.287576 2.500000
      vertex -10.517221 7.641208 2.500000
      vertex -12.374369 9.545942 2.500000
    endloop
  endfacet
  facet normal 0.000000 -0.000000 1.000000
    outer loop
      vertex 12.715919 -2.702852 2.500000
      vertex 11.876091 -5.287576 2.500000
      vertex 18.738330 -15.909903 2.500000
    endloop
  endfacet
  facet normal 0.000000 -0.000000 1.000000
    outer loop
      vertex -6.500000 -11.258330 2.500000
      vertex -9.545942 -12.374369 2.500000
      vertex -1.500000 -21.500000 2.500000
    endloop
  endfacet
  facet normal 0.000000 -0.000000 1.000000
    outer loop
      vertex -11.876091 -5.287576 2.500000
      vertex -12.374369 -9.545942 2.500000
      vertex -9.545942 -12.374369 2.500000
    endloop
  endfacet
  facet normal 0.000000 0.000000 1.000000
    outer loop
      vertex -19.000000 21.500000 2.500000
      vertex -18.738330 -15.909903 2.500000
      vertex -18.738330 15.909903 2.500000
    endloop
  endfacet
  facet normal 0.000000 0.000000 1.000000
    outer loop
      vertex -10.517221 7.641208 2.500000
      vertex -8.698698 9.660883 2.500000
      vertex -12.374369 9.545942 2.500000
    endloop
  endfacet
  facet normal 0.000000 0.000000 1.000000
    outer loop
      vertex -1.500000 21.500000 2.500000
      vertex -19.000000 21.500000 2.500000
      vertex -15.909903 18.738330 2.500000
    endloop
  endfacet
  facet normal 0.000000 0.000000 1.000000
    outer loop
      vertex -1.500000 21.500000 2.500000
      vertex -15.909903 18.738330 2.500000
      vertex -9.545942 12.374369 2.500000
    endloop
  endfacet
  facet normal 0.000000 -0.000000 1.000000
    outer loop
      vertex -9.545942 12.374369 2.500000
      vertex -12.374369 9.545942 2.500000
      vertex -8.698698 9.660883 2.500000
    endloop
  endfacet
  facet normal 0.000000 0.000000 1.000000
    outer loop
      vertex 15.909903 -18.738330 2.500000
      vertex 9.545942 -12.374369 2.500000
      vertex 6.500000 -11.258330 2.500000
    endloop
  endfacet
  facet normal 0.000000 0.000000 1.000000
    outer loop
      vertex -18.738330 15.909903 2.500000
      vertex -15.909903 18.738330 2.500000
      vertex -19.000000 21.500000 2.500000
    endloop
  endfacet
  facet normal -0.000000 -0.000000 1.000000
    outer loop
      vertex -10.517221 -7.641208 2.500000
      vertex -11.876091 -5.287576 2.500000
      vertex -9.545942 -12.374369 2.500000
    endloop
  endfacet
  facet normal 0.000000 -0.000000 1.000000
    outer loop
      vertex 13.000000 0.000000 2.500000
      vertex 12.715919 -2.702852 2.500000
      vertex 21.500000 -21.500000 2.500000
    endloop
  endfacet
  facet normal 0.000000 -0.000000 1.000000
    outer loop
      vertex 18.738330 -15.909903 2.500000
      vertex 15.909903 -18.738330 2.500000
      vertex 21.500000 -21.500000 2.500000
    endloop
  endfacet
  facet normal 0.000000 0.000000 1.000000
    outer loop
      vertex 1.358870 12.928785 2.500000
      vertex 4.017221 12.363735 2.500000
      vertex -1.500000 21.500000 2.500000
    endloop
  endfacet
  facet normal 0.000000 -0.000000 1.000000
    outer loop
      vertex 8.698698 -9.660883 2.500000
      vertex 6.500000 -11.258330 2.500000
      vertex 9.545942 -12.374369 2.500000
    endloop
  endfacet
  facet normal 0.000000 0.000000 1.000000
    outer loop
      vertex -1.500000 21.500000 2.500000
      vertex -9.545942 12.374369 2.500000
      vertex -6.500000 11.258330 2.500000
    endloop
  endfacet
  facet normal 0.000000 0.000000 1.000000
    outer loop
      vertex 12.374369 -9.545942 2.500000
      vertex 18.738330 -15.909903 2.500000
      vertex 11.876091 -5.287576 2.500000
    endloop
  endfacet
  facet normal 0.000000 0.000000 1.000000
    outer loop
      vertex -1.500000 21.500000 2.500000
      vertex -6.500000 11.258330 2.500000
      vertex -4.017221 12.363735 2.500000
    endloop
  endfacet
  facet normal -0.000000 -0.000000 1.000000
    outer loop
      vertex -4.017221 -12.363735 2.500000
      vertex -6.500000 -11.258330 2.500000
      vertex -1.500000 -21.500000 2.500000
    endloop
  endfacet
  facet normal 0.000000 -0.000000 1.000000
    outer loop
      vertex -1.500000 21.500000 2.500000
      vertex -4.017221 12.363735 2.500000
      vertex -1.358870 12.928785 2.500000
    endloop
  endfacet
  facet normal 0.000000 0.000000 1.000000
    outer loop
      vertex 12.715919 2.702852 2.500000
      vertex 13.000000 0.000000 2.500000
      vertex 21.500000 -21.500000 2.500000
    endloop
  endfacet
  facet normal 0.000000 0.000000 1.000000
    outer loop
      vertex -1.500000 21.500000 2.500000
      vertex -1.358870 12.928785 2.500000
      vertex 1.358870 12.928785 2.500000
    endloop
  endfacet
  facet normal -0.000000 0.000000 1.000000
    outer loop
      vertex 15.909903 18.738330 2.500000
      vertex -1.500000 21.500000 2.500000
      vertex 4.017221 12.363735 2.500000
    endloop
  endfacet
  facet normal 0.000000 0.000000 1.000000
    outer loop
      vertex 9.545942 12.374369 2.500000
      vertex 6.500000 11.258330 2.500000
      vertex 8.698698 9.660883 2.500000
    endloop
  endfacet
  facet normal 0.000000 0.000000 1.000000
    outer loop
      vertex 9.545942 12.374369 2.500000
      vertex 4.017221 12.363735 2.500000
      vertex 6.500000 11.258330 2.500000
    endloop
  endfacet
  facet normal 0.000000 -0.000000 1.000000
    outer loop
      vertex 18.738330 15.909903 2.500000
      vertex 11.876091 5.287576 2.500000
      vertex 21.500000 -21.500000 2.500000
    endloop
  endfacet
  facet normal 0.000000 0.000000 1.000000
    outer loop
      vertex 12.374369 9.545942 2.500000
      vertex 10.517221 7.641208 2.500000
      vertex 11.876091 5.287576 2.500000
    endloop
  endfacet
  facet normal 0.000000 0.000000 1.000000
    outer loop
      vertex 11.876091 5.287576 2.500000
      vertex 12.715919 2.702852 2.500000
      vertex 21.500000 -21.500000 2.500000
    endloop
  endfacet
  facet normal 0.000000 0.000000 1.000000
    outer loop
      vertex 12.374369 9.545942 2.500000
      vertex 9.545942 12.374369 2.500000
      vertex 8.698698 9.660883 2.500000
    endloop
  endfacet
  facet normal 0.000000 0.000000 1.000000
    outer loop
      vertex -8.698698 9.660883 2.500000
      vertex -6.500000 11.258330 2.500000
      vertex -9.545942 12.374369 2.500000
    endloop
  endfacet
  facet normal -0.000000 0.000000 1.000000
    outer loop
      vertex 15.909903 -18.738330 2.500000
      vertex 6.500000 -11.258330 2.500000
      vertex -1.500000 -21.500000 2.500000
    endloop
  endfacet
  facet normal 0.000000 0.000000 1.000000
    outer loop
      vertex 6.500000 -11.258330 2.500000
      vertex 4.017221 -12.363735 2.500000
      vertex -1.500000 -21.500000 2.500000
    endloop
  endfacet
  facet normal 0.000000 0.000000 1.000000
    outer loop
      vertex 4.017221 -12.363735 2.500000
      vertex 1.358870 -12.928785 2.500000
      vertex -1.500000 -21.500000 2.500000
    endloop
  endfacet
  facet normal 0.000000 0.000000 1.000000
    outer loop
      vertex 1.358870 -12.928785 2.500000
      vertex -1.358870 -12.928785 2.500000
      vertex -1.500000 -21.500000 2.500000
    endloop
  endfacet
  facet normal -0.000000 0.000000 1.000000
    outer loop
      vertex -1.358870 -12.928785 2.500000
      vertex -4.017221 -12.363735 2.500000
      vertex -1.500000 -21.500000 2.500000
    endloop
  endfacet
  facet normal 0.000000 -0.000000 1.000000
    outer loop
      vertex -8.698698 -9.660883 2.500000
      vertex -9.545942 -12.374369 2.500000
      vertex -6.500000 -11.258330 2.500000
    endloop
  endfacet
  facet normal 0.000000 0.000000 1.000000
    outer loop
      vertex -10.517221 -7.641208 2.500000
      vertex -9.545942 -12.374369 2.500000
      vertex -8.698698 -9.660883 2.500000
    endloop
  endfacet
  facet normal 0.000000 0.000000 1.000000
    outer loop
      vertex -12.715919 -2.702852 2.500000
      vertex -12.374369 -9.545942 2.500000
      vertex -11.876091 -5.287576 2.500000
    endloop
  endfacet
  facet normal 0.000000 0.000000 1.000000
    outer loop
      vertex 18.738330 15.909903 2.500000
      vertex 12.374369 9.545942 2.500000
      vertex 11.876091 5.287576 2.500000
    endloop
  endfacet
  facet normal 0.000000 0.000000 1.000000
    outer loop
      vertex 12.715919 -2.702852 2.500000
      vertex 18.738330 -15.909903 2.500000
      vertex 21.500000 -21.500000 2.500000
    endloop
  endfacet
  facet normal 0.000000 -0.000000 1.000000
    outer loop
      vertex 11.876091 -5.287576 2.500000
      vertex 10.517221 -7.641208 2.500000
      vertex 12.374369 -9.545942 2.500000
    endloop
  endfacet
  facet normal -0.000000 0.000000 1.000000
    outer loop
      vertex 21.500000 -21.500000 2.500000
      vertex 15.909903 -18.738330 2.500000
      vertex -1.500000 -21.500000 2.500000
    endloop
  endfacet
  facet normal 0.000000 0.000000 1.000000
    outer loop
      vertex 9.545942 -12.374369 2.500000
      vertex 10.517221 -7.641208 2.500000
      vertex 8.698698 -9.660883 2.500000
    endloop
  endfacet
  facet normal -0.000000 0.000000 1.000000
    outer loop
      vertex 9.545942 12.374369 2.500000
      vertex 15.909903 18.738330 2.500000
      vertex 4.017221 12.363735 2.500000
    endloop
  endfacet
  facet normal 0.000000 0.000000 1.000000
    outer loop
      vertex 15.909903 18.738330 2.500000
      vertex 18.738330 15.909903 2.500000
      vertex 21.500000 21.500000 2.500000
    endloop
  endfacet
  facet normal 0.000000 0.000000 1.000000
    outer loop
      vertex 21.500000 21.500000 2.500000
      vertex -1.500000 21.500000 2.500000
      vertex 15.909903 18.738330 2.500000
    endloop
  endfacet
  facet normal 0.000000 0.000000 1.000000
    outer loop
      vertex 21.500000 21.500000 2.500000
      vertex 18.738330 15.909903 2.500000
      vertex 21.500000 -21.500000 2.500000
    endloop
  endfacet
  facet normal -0.000000 0.000000 1.000000
    outer loop
      vertex 12.374369 9.545942 2.500000
      vertex 8.698698 9.660883 2.500000
      vertex 10.517221 7.641208 2.500000
    endloop
  endfacet
  facet normal 0.000000 -0.000000 1.000000
    outer loop
      vertex -9.545942 -12.374369 2.500000
      vertex -15.909903 -18.738330 2.500000
      vertex -1.500000 -21.500000 2.500000
    endloop
  endfacet
  facet normal 0.000000 0.000000 1.000000
    outer loop
      vertex -18.738330 -15.909903 2.500000
      vertex -12.374369 -9.545942 2.500000
      vertex -18.738330 15.909903 2.500000
    endloop
  endfacet
  facet normal 0.000000 0.000000 1.000000
    outer loop
      vertex 9.545942 -12.374369 2.500000
      vertex 12.374369 -9.545942 2.500000
      vertex 10.517221 -7.641208 2.500000
    endloop
  endfacet
  facet normal 0.000000 0.000000 1.000000
    outer loop
      vertex -12.374369 9.545942 2.500000
      vertex -13.000000 0.000000 2.500000
      vertex -12.715919 2.702852 2.500000
    endloop
  endfacet
  facet normal 0.000000 0.000000 1.000000
    outer loop
      vertex -13.000000 0.000000 2.500000
      vertex -12.374369 -9.545942 2.500000
      vertex -12.715919 -2.702852 2.500000
    endloop
  endfacet
  facet normal -0.000000 -0.000000 1.000000
    outer loop
      vertex -13.000000 0.000000 2.500000
      vertex -18.738330 15.909903 2.500000
      vertex -12.374369 -9.545942 2.500000
    endloop
  endfacet
  facet normal -0.000000 0.000000 1.000000
    outer loop
      vertex -12.374369 9.545942 2.500000
      vertex -18.738330 15.909903 2.500000
      vertex -13.000000 0.000000 2.500000
    endloop
  endfacet
endsolid OpenSCAD_Model
